<?xml version="1.0" encoding="UTF-8" standalone="no"?>
<!DOCTYPE svg PUBLIC "-//W3C//DTD SVG 1.1//EN" "http://www.w3.org/Graphics/SVG/1.1/DTD/svg11.dtd">
<svg version="1.1" xmlns="http://www.w3.org/2000/svg" xmlns:xlink="http://www.w3.org/1999/xlink" preserveAspectRatio="xMidYMid meet" viewBox="0 0 640 640" width="300" height="300"><defs><path d="M452.13 386.1C416.35 468.79 328.85 510.62 256.86 479.46C184.86 448.31 155.47 355.88 191.26 273.2C227.04 190.51 314.54 148.68 386.53 179.84C458.52 210.99 487.92 303.42 452.13 386.1Z" id="aH6PU8unP"></path><path d="M436.5 397.64L547.5 365.64L422.5 410.64" id="eHwPpo34"></path><path d="M427.74 417.75L531.74 407.4L412.74 427.81" id="cTpxz0bvD"></path><path d="M423.92 424.77L510.37 452.86L407.42 428.23" id="b45Wj6tqEE"></path><path d="M422.17 428.78L485.85 493.65L405.94 424.22" id="aqZ3xbSxR"></path><path d="M543.5 363.54L625.09 211.52L543.5 373.94" id="bi1IQeUu8"></path><path d="M521.97 407.22L604.43 507.39L528.3 401.94" id="c4iZl9zosY"></path><path d="M501.5 455.5L547.5 572.5L506.5 448.5" id="a1dFE58NC0"></path><path d="M477.5 489.78L422.5 608.5L485 489.78" id="a8XOOyLhk"></path><path d="M404.41 349.07C380.89 397.68 331.96 422.7 295.2 404.92C258.45 387.14 247.69 333.24 271.21 284.63C294.72 236.03 343.65 211.01 380.41 228.79C417.17 246.57 427.92 300.47 404.41 349.07Z" id="a5GQuYxqf4"></path><path d="M432.13 379.05C395.98 453.79 315.55 489.76 252.65 459.32C189.74 428.89 168.02 343.51 204.17 268.78C240.33 194.05 320.75 158.08 383.66 188.51C446.56 218.94 468.28 304.32 432.13 379.05Z" id="a9z6Qyq2rY"></path><path d="M428.93 357.67C408.4 417.02 359.65 454.1 320.13 440.44C280.61 426.77 265.19 367.48 285.72 308.13C306.24 248.78 355 211.7 394.52 225.36C434.04 239.03 449.46 298.32 428.93 357.67Z" id="a2OlUPyD16"></path><path d="M400.55 341.57C370.53 394.95 317.26 422.04 281.67 402.03C246.08 382.02 241.55 322.43 271.57 269.05C301.59 215.67 354.85 188.57 390.45 208.59C426.04 228.6 430.56 288.19 400.55 341.57Z" id="d2SeSTxSA4"></path><path d="M336.04 468.14C336.04 517.26 302.09 557.14 260.27 557.14C218.45 557.14 184.5 517.26 184.5 468.14C184.5 419.02 218.45 379.14 260.27 379.14C302.09 379.14 336.04 419.02 336.04 468.14Z" id="a2YeIq1fe8"></path><path d="M320 468.14C320 512.3 291.21 548.14 255.75 548.14C220.29 548.14 191.5 512.3 191.5 468.14C191.5 423.99 220.29 388.14 255.75 388.14C291.21 388.14 320 423.99 320 468.14Z" id="e3pImBLHyF"></path><path d="M324.87 201.12C325.18 204.21 315.5 207.71 303.25 208.94C291.01 210.17 280.82 208.66 280.51 205.58C280.2 202.49 289.89 198.99 302.13 197.76C314.37 196.53 324.56 198.04 324.87 201.12Z" id="e1NkPxL3pE"></path><path d="M269.61 281.64C272.03 286.61 257.56 298.65 237.32 308.51C217.08 318.37 198.68 322.34 196.25 317.36C193.83 312.39 208.3 300.35 228.54 290.49C248.79 280.63 267.19 276.66 269.61 281.64Z" id="a38yNtSuKu"></path><path d="M297.36 553.41C288.3 575.34 271.26 589.15 259.34 584.22C247.42 579.29 245.1 557.49 254.17 535.55C263.23 513.62 280.27 499.81 292.19 504.74C304.11 509.67 306.43 531.47 297.36 553.41Z" id="edtYFZzRH"></path><path d="M307.22 230.58C309.1 237.17 292.26 247.76 269.64 254.22C247.02 260.68 227.13 260.59 225.25 254C223.37 247.42 240.2 236.82 262.82 230.36C285.44 223.9 305.34 224 307.22 230.58Z" id="b12t6srlhM"></path><path d="M290.75 551.71C282.94 570.62 268.75 582.72 259.09 578.73C249.43 574.74 247.93 556.15 255.74 537.25C263.55 518.34 277.74 506.24 287.4 510.23C297.06 514.22 298.56 532.81 290.75 551.71Z" id="a2OYc6KQr8"></path><path d="M265.07 328.04C267.23 331.25 255.02 343.22 237.83 354.74C220.63 366.27 204.93 373.02 202.78 369.81C200.63 366.6 212.84 354.64 230.03 343.11C247.22 331.59 262.92 324.84 265.07 328.04Z" id="aiwnT7Ou"></path><path d="M252.14 477.14C252.14 481.01 250.57 484.14 248.64 484.14C246.7 484.14 245.14 481.01 245.14 477.14C245.14 473.28 246.7 470.14 248.64 470.14C250.57 470.14 252.14 473.28 252.14 477.14Z" id="aCKjG6LA4"></path><path d="M257.75 431.14C257.75 454.88 237.53 474.14 212.62 474.14C187.72 474.14 167.5 454.88 167.5 431.14C167.5 407.41 187.72 388.14 212.62 388.14C237.53 388.14 257.75 407.41 257.75 431.14Z" id="d1usGKEGBc"></path><path d="M348 431.14C348 454.88 327.78 474.14 302.87 474.14C277.97 474.14 257.75 454.88 257.75 431.14C257.75 407.41 277.97 388.14 302.87 388.14C327.78 388.14 348 407.41 348 431.14Z" id="a34Eb7GQkP"></path><path d="M234.83 533.2C242.22 555.75 238.28 577.32 226.02 581.34C213.76 585.36 197.81 570.31 190.42 547.76C183.02 525.21 186.97 503.64 199.23 499.62C211.48 495.6 227.44 510.65 234.83 533.2Z" id="b1beqx5VmF"></path><path d="M262.25 477.14C262.25 481.01 260.68 484.14 258.75 484.14C256.82 484.14 255.25 481.01 255.25 477.14C255.25 473.28 256.82 470.14 258.75 470.14C260.68 470.14 262.25 473.28 262.25 477.14Z" id="aoiDuUwsr"></path><path d="M345.52 430.64C345.52 452.44 326.42 470.14 302.89 470.14C279.37 470.14 260.27 452.44 260.27 430.64C260.27 408.84 279.37 391.14 302.89 391.14C326.42 391.14 345.52 408.84 345.52 430.64Z" id="d2cHfB9T5O"></path><path d="M255.25 430.64C255.25 452.44 236.15 470.14 212.62 470.14C189.1 470.14 170 452.44 170 430.64C170 408.84 189.1 391.14 212.62 391.14C236.15 391.14 255.25 408.84 255.25 430.64Z" id="hkHNoOQmT"></path><path d="M322.32 414.43C325.82 420.32 326.73 426.25 324.34 427.66C321.96 429.08 317.18 425.45 313.68 419.57C310.18 413.68 309.27 407.75 311.66 406.34C314.04 404.92 318.82 408.55 322.32 414.43Z" id="g65Yb2fj5"></path><path d="M230.65 533.7C236.92 553.17 233.92 571.58 223.97 574.78C214.02 577.98 200.85 564.77 194.59 545.3C188.33 525.83 191.33 507.42 201.28 504.22C211.23 501.02 224.39 514.23 230.65 533.7Z" id="i11OsxLRkk"></path><path d="M234.32 414.43C237.82 420.32 238.73 426.25 236.34 427.66C233.96 429.08 229.18 425.45 225.68 419.57C222.18 413.68 221.27 407.75 223.66 406.34C226.04 404.92 230.82 408.55 234.32 414.43Z" id="bheHC9jtJ"></path><path d="" id="b2DqzW8Q0A"></path><path d="M620.49 211.52L458.9 44.52L628.04 211.52L620.49 211.52Z" id="fMPD0orRy"></path><path d="M596.5 501.5L528.5 635.5L604.43 503.74" id="f9CzDyzJ4"></path><path d="M543.47 566L395.5 640L543.47 573" id="avEDfjhre"></path><path d="M425.33 608.5L222.33 629.5L425.33 600.5" id="aSOB3H7JI"></path><path d="M179.5 348.93L147.5 315.51L179.5 335.3" id="b9GpYWi7y0"></path><path d="M178.88 362.65L127.07 343.95L178.56 350.87" id="cpsqbDsth"></path><path d="M179.5 365.85L117 389.59L179.5 356.17" id="aRMalJi3Z"></path><path d="M182.5 379.14L144.5 406.03L179.5 370.5" id="d3lldl2h3H"></path><path d="M153.95 319.51L179.5 148.51L147.5 319.51" id="esyyuaXCy"></path><path d="M181.49 151.5L342.49 10.5L175.01 148.5" id="e3yDyH9Dci"></path><path d="M132.4 348.93L6.5 430.64L128.5 340.5" id="d2YtQEJwn6"></path><path d="M14.5 424.22L23.5 631.75L7.5 427.4" id="fyA9EK4e"></path><path d="M125.74 386.78L38.51 506.75L118.03 384.04" id="e7Fq8Ppeqf"></path><path d="M46.5 498.97L82.5 631.75L39.5 503.74" id="c49Ob4JXer"></path><path d="M149.11 403.3L104.11 516.81L142.61 401.94" id="a6QZaFTatp"></path><path d="M106.5 516.81L205.11 639.4L99.5 516.81" id="b8EhIiuNI"></path><path d="M287.75 554.01C280.51 568.67 269.19 577.89 262.5 574.58C255.8 571.28 256.24 556.69 263.48 542.02C270.72 527.36 282.04 518.14 288.74 521.44C295.43 524.75 294.99 539.34 287.75 554.01Z" id="dLIV65S22"></path><path d="M262.64 540.16C254.67 554.43 252.86 568.64 258.61 571.85C264.37 575.06 275.51 566.08 283.49 551.8C291.46 537.52 293.27 523.32 287.52 520.11C281.76 516.9 270.62 525.88 262.64 540.16Z" id="f1jl3yNIaL"></path><path d="M202.11 552.84C206.73 565.33 216.16 573.36 223.17 570.77C230.17 568.18 232.11 555.93 227.49 543.45C222.87 530.96 213.43 522.93 206.43 525.52C199.42 528.11 197.49 540.35 202.11 552.84Z" id="a7nt0QXaj"></path><path d="M227.25 543.97C229.07 556.25 224 567.19 215.93 568.39C207.86 569.59 199.83 560.59 198 548.31C196.18 536.02 201.25 525.08 209.32 523.88C217.39 522.68 225.42 531.68 227.25 543.97Z" id="c2UwXiluXv"></path></defs><g><g><g><use xlink:href="#aH6PU8unP" opacity="1" fill="#000000" fill-opacity="1"></use></g><g><g><use xlink:href="#eHwPpo34" opacity="1" fill-opacity="0" stroke="#000000" stroke-width="11" stroke-opacity="1"></use></g></g><g><g><use xlink:href="#cTpxz0bvD" opacity="1" fill-opacity="0" stroke="#000000" stroke-width="11" stroke-opacity="1"></use></g></g><g><g><use xlink:href="#b45Wj6tqEE" opacity="1" fill-opacity="0" stroke="#000000" stroke-width="11" stroke-opacity="1"></use></g></g><g><g><use xlink:href="#aqZ3xbSxR" opacity="1" fill-opacity="0" stroke="#000000" stroke-width="11" stroke-opacity="1"></use></g></g><g><g><use xlink:href="#bi1IQeUu8" opacity="1" fill-opacity="0" stroke="#000000" stroke-width="7" stroke-opacity="1"></use></g></g><g><g><use xlink:href="#c4iZl9zosY" opacity="1" fill-opacity="0" stroke="#000000" stroke-width="8" stroke-opacity="1"></use></g></g><g><g><use xlink:href="#a1dFE58NC0" opacity="1" fill-opacity="0" stroke="#000000" stroke-width="7" stroke-opacity="1"></use></g></g><g><g><use xlink:href="#a8XOOyLhk" opacity="1" fill-opacity="0" stroke="#000000" stroke-width="7" stroke-opacity="1"></use></g></g><g><use xlink:href="#a5GQuYxqf4" opacity="1" fill="#57745e" fill-opacity="1"></use></g><g><use xlink:href="#a9z6Qyq2rY" opacity="1" fill="#57745e" fill-opacity="1"></use></g><g><use xlink:href="#a2OlUPyD16" opacity="1" fill="#2e3530" fill-opacity="1"></use></g><g><use xlink:href="#d2SeSTxSA4" opacity="1" fill="#57745e" fill-opacity="1"></use></g><g><use xlink:href="#a2YeIq1fe8" opacity="1" fill="#000000" fill-opacity="1"></use></g><g><use xlink:href="#e3pImBLHyF" opacity="1" fill="#344d3a" fill-opacity="1"></use></g><g><use xlink:href="#e1NkPxL3pE" opacity="1" fill="#000504" fill-opacity="1"></use></g><g><use xlink:href="#a38yNtSuKu" opacity="1" fill="#000504" fill-opacity="1"></use></g><g><use xlink:href="#edtYFZzRH" opacity="1" fill="#000000" fill-opacity="1"></use></g><g><use xlink:href="#b12t6srlhM" opacity="1" fill="#000504" fill-opacity="1"></use></g><g><use xlink:href="#a2OYc6KQr8" opacity="1" fill="#57745e" fill-opacity="1"></use></g><g><use xlink:href="#aiwnT7Ou" opacity="1" fill="#000504" fill-opacity="1"></use></g><g><use xlink:href="#aCKjG6LA4" opacity="1" fill="#000504" fill-opacity="1"></use></g><g><use xlink:href="#d1usGKEGBc" opacity="1" fill="#000000" fill-opacity="1"></use></g><g><use xlink:href="#a34Eb7GQkP" opacity="1" fill="#000000" fill-opacity="1"></use></g><g><use xlink:href="#b1beqx5VmF" opacity="1" fill="#000000" fill-opacity="1"></use></g><g><use xlink:href="#aoiDuUwsr" opacity="1" fill="#000504" fill-opacity="1"></use></g><g><use xlink:href="#d2cHfB9T5O" opacity="1" fill="#000000" fill-opacity="1"></use><g><use xlink:href="#d2cHfB9T5O" opacity="1" fill-opacity="0" stroke="#ffffff" stroke-width="2" stroke-opacity="1"></use></g></g><g><use xlink:href="#hkHNoOQmT" opacity="1" fill="#000000" fill-opacity="1"></use><g><use xlink:href="#hkHNoOQmT" opacity="1" fill-opacity="0" stroke="#ffffff" stroke-width="2" stroke-opacity="1"></use></g></g><g><use xlink:href="#g65Yb2fj5" opacity="1" fill="#ffffff" fill-opacity="1"></use></g><g><use xlink:href="#i11OsxLRkk" opacity="1" fill="#57745e" fill-opacity="1"></use></g><g><use xlink:href="#bheHC9jtJ" opacity="1" fill="#ffffff" fill-opacity="1"></use></g><g><g><use xlink:href="#b2DqzW8Q0A" opacity="1" fill-opacity="0" stroke="#000000" stroke-width="6" stroke-opacity="1"></use></g></g><g><use xlink:href="#fMPD0orRy" opacity="1" fill="#000504" fill-opacity="1"></use><g><use xlink:href="#fMPD0orRy" opacity="1" fill-opacity="0" stroke="#000000" stroke-width="2" stroke-opacity="1"></use></g></g><g><use xlink:href="#f9CzDyzJ4" opacity="1" fill="#000504" fill-opacity="1"></use><g><use xlink:href="#f9CzDyzJ4" opacity="1" fill-opacity="0" stroke="#000000" stroke-width="2" stroke-opacity="1"></use></g></g><g><use xlink:href="#avEDfjhre" opacity="1" fill="#000504" fill-opacity="1"></use><g><use xlink:href="#avEDfjhre" opacity="1" fill-opacity="0" stroke="#000000" stroke-width="3" stroke-opacity="1"></use></g></g><g><use xlink:href="#aSOB3H7JI" opacity="1" fill="#000504" fill-opacity="1"></use><g><use xlink:href="#aSOB3H7JI" opacity="1" fill-opacity="0" stroke="#000000" stroke-width="3" stroke-opacity="1"></use></g></g><g><use xlink:href="#b9GpYWi7y0" opacity="1" fill="#000504" fill-opacity="1"></use><g><use xlink:href="#b9GpYWi7y0" opacity="1" fill-opacity="0" stroke="#000000" stroke-width="8" stroke-opacity="1"></use></g></g><g><use xlink:href="#cpsqbDsth" opacity="1" fill="#000504" fill-opacity="1"></use><g><use xlink:href="#cpsqbDsth" opacity="1" fill-opacity="0" stroke="#000000" stroke-width="8" stroke-opacity="1"></use></g></g><g><use xlink:href="#aRMalJi3Z" opacity="1" fill="#000504" fill-opacity="1"></use><g><use xlink:href="#aRMalJi3Z" opacity="1" fill-opacity="0" stroke="#000000" stroke-width="7" stroke-opacity="1"></use></g></g><g><use xlink:href="#d3lldl2h3H" opacity="1" fill="#000504" fill-opacity="1"></use><g><use xlink:href="#d3lldl2h3H" opacity="1" fill-opacity="0" stroke="#000000" stroke-width="6" stroke-opacity="1"></use></g></g><g><use xlink:href="#esyyuaXCy" opacity="1" fill="#000504" fill-opacity="1"></use><g><use xlink:href="#esyyuaXCy" opacity="1" fill-opacity="0" stroke="#000000" stroke-width="6" stroke-opacity="1"></use></g></g><g><use xlink:href="#e3yDyH9Dci" opacity="1" fill="#000504" fill-opacity="1"></use><g><use xlink:href="#e3yDyH9Dci" opacity="1" fill-opacity="0" stroke="#000000" stroke-width="3" stroke-opacity="1"></use></g></g><g><use xlink:href="#d2YtQEJwn6" opacity="1" fill="#000504" fill-opacity="1"></use><g><use xlink:href="#d2YtQEJwn6" opacity="1" fill-opacity="0" stroke="#000000" stroke-width="5" stroke-opacity="1"></use></g></g><g><use xlink:href="#fyA9EK4e" opacity="1" fill="#000504" fill-opacity="1"></use><g><use xlink:href="#fyA9EK4e" opacity="1" fill-opacity="0" stroke="#000000" stroke-width="3" stroke-opacity="1"></use></g></g><g><use xlink:href="#e7Fq8Ppeqf" opacity="1" fill="#000504" fill-opacity="1"></use><g><use xlink:href="#e7Fq8Ppeqf" opacity="1" fill-opacity="0" stroke="#000000" stroke-width="5" stroke-opacity="1"></use></g></g><g><use xlink:href="#c49Ob4JXer" opacity="1" fill="#000504" fill-opacity="1"></use><g><use xlink:href="#c49Ob4JXer" opacity="1" fill-opacity="0" stroke="#000000" stroke-width="3" stroke-opacity="1"></use></g></g><g><use xlink:href="#a6QZaFTatp" opacity="1" fill="#000504" fill-opacity="1"></use><g><use xlink:href="#a6QZaFTatp" opacity="1" fill-opacity="0" stroke="#000000" stroke-width="5" stroke-opacity="1"></use></g></g><g><use xlink:href="#b8EhIiuNI" opacity="1" fill="#000504" fill-opacity="1"></use><g><use xlink:href="#b8EhIiuNI" opacity="1" fill-opacity="0" stroke="#000000" stroke-width="5" stroke-opacity="1"></use></g></g><g><use xlink:href="#dLIV65S22" opacity="1" fill="#2e3530" fill-opacity="1"></use></g><g><use xlink:href="#f1jl3yNIaL" opacity="1" fill="#57745e" fill-opacity="1"></use></g><g><use xlink:href="#a7nt0QXaj" opacity="1" fill="#2e3530" fill-opacity="1"></use></g><g><use xlink:href="#c2UwXiluXv" opacity="1" fill="#57745e" fill-opacity="1"></use></g></g></g></svg>